<?xml version="1.0" standalone="no"?><!DOCTYPE svg PUBLIC "-//W3C//DTD SVG 1.1//EN" "http://www.w3.org/Graphics/SVG/1.1/DTD/svg11.dtd"><svg t="1535193413906" class="icon" style="" viewBox="0 0 1024 1024" version="1.1" xmlns="http://www.w3.org/2000/svg" p-id="9198" xmlns:xlink="http://www.w3.org/1999/xlink" width="32" height="32"><defs><style type="text/css"></style></defs><path d="M607.185455 301.847273c6.376727 6.749091 9.541818 15.36 9.541818 23.970909 0 9.262545-3.653818 18.501818-10.938182 25.367273l-160.768 152.040727 162.117818 170.938182a34.909091 34.909091 0 0 1-50.641454 48.034909l-186.181819-196.282182a33.326545 33.326545 0 0 1-9.565091-24.971636c0.256-9.262545 4.165818-18.059636 10.91491-24.413091l186.181818-176.081455a34.885818 34.885818 0 0 1 49.338182 1.396364M23.272727 512c0 269.917091 218.810182 488.727273 488.727273 488.727273s488.727273-218.810182 488.727273-488.727273c0-269.893818-218.810182-488.727273-488.727273-488.727273S23.272727 242.106182 23.272727 512" fill="#ffffff" p-id="9199"></path></svg>