<?xml version="1.0" standalone="no"?><!DOCTYPE svg PUBLIC "-//W3C//DTD SVG 1.1//EN" "http://www.w3.org/Graphics/SVG/1.1/DTD/svg11.dtd"><svg t="1535193401442" class="icon" style="" viewBox="0 0 1024 1024" version="1.1" xmlns="http://www.w3.org/2000/svg" p-id="8477" xmlns:xlink="http://www.w3.org/1999/xlink" width="32" height="32"><defs><style type="text/css"></style></defs><path d="M511.174 954.931c243.404 0 440.719-197.315 440.719-440.718s-197.315-440.725-440.719-440.725c-243.407 0-440.725 197.322-440.725 440.725 0 243.402 197.315 440.718 440.725 440.718v0zM371.373 492.117l188.94-213.253c11.18-12.609 29.308-12.609 40.486 0 11.183 12.637 11.183 33.065 0 45.687l-168.701 190.394 168.7 190.394c11.183 12.647 11.183 33.090 0 45.695-11.182 12.634-29.308 12.634-40.486 0l-188.939-213.23c-11.18-12.609-11.18-33.070 0-45.683v0zM371.373 492.117z" p-id="8478" fill="#ffffff"></path></svg>